<svg width="25" height="24" viewBox="0 0 25 24" fill="none" xmlns="http://www.w3.org/2000/svg">
<path d="M20.1289 10.999H22.1289C22.1289 5.869 18.2559 2 13.1189 2V4C17.1809 4 20.1289 6.943 20.1289 10.999Z" fill="white"/>
<path d="M13.1292 7.99999C15.2322 7.99999 16.1292 8.89699 16.1292 11H18.1292C18.1292 7.77499 16.3542 5.99999 13.1292 5.99999V7.99999ZM16.5512 13.443C16.359 13.2683 16.1065 13.1752 15.847 13.1832C15.5875 13.1912 15.3412 13.2998 15.1602 13.486L12.7672 15.947C12.1912 15.837 11.0332 15.476 9.84119 14.287C8.64919 13.094 8.28819 11.933 8.18119 11.361L10.6402 8.96699C10.8266 8.78612 10.9353 8.53982 10.9433 8.2802C10.9514 8.02059 10.8581 7.76804 10.6832 7.57599L6.98819 3.51299C6.81323 3.32035 6.57007 3.2035 6.31034 3.18725C6.05061 3.17101 5.79479 3.25665 5.59719 3.42599L3.42719 5.28699C3.2543 5.46051 3.15111 5.69145 3.13719 5.93599C3.12219 6.18599 2.83619 12.108 7.42819 16.702C11.4342 20.707 16.4522 21 17.8342 21C18.0362 21 18.1602 20.994 18.1932 20.992C18.4377 20.9783 18.6685 20.8747 18.8412 20.701L20.7012 18.53C20.8707 18.3325 20.9565 18.0768 20.9404 17.817C20.9244 17.5573 20.8077 17.3141 20.6152 17.139L16.5512 13.443Z" fill="white"/>
</svg>
