<svg width="41" height="40" viewBox="0 0 41 40" fill="none" xmlns="http://www.w3.org/2000/svg">
<rect x="0.59082" width="40" height="40" rx="20" fill="#9AD744"/>
<path d="M27.5908 11C28.1213 11 28.63 11.2107 29.005 11.5858C29.3801 11.9609 29.5908 12.4696 29.5908 13V27C29.5908 27.5304 29.3801 28.0391 29.005 28.4142C28.63 28.7893 28.1213 29 27.5908 29H13.5908C13.0604 29 12.5517 28.7893 12.1766 28.4142C11.8015 28.0391 11.5908 27.5304 11.5908 27V13C11.5908 12.4696 11.8015 11.9609 12.1766 11.5858C12.5517 11.2107 13.0604 11 13.5908 11H27.5908ZM27.0908 26.5V21.2C27.0908 20.3354 26.7474 19.5062 26.136 18.8948C25.5246 18.2835 24.6954 17.94 23.8308 17.94C22.9808 17.94 21.9908 18.46 21.5108 19.24V18.13H18.7208V26.5H21.5108V21.57C21.5108 20.8 22.1308 20.17 22.9008 20.17C23.2721 20.17 23.6282 20.3175 23.8908 20.5801C24.1533 20.8426 24.3008 21.1987 24.3008 21.57V26.5H27.0908ZM15.4708 16.56C15.9164 16.56 16.3437 16.383 16.6588 16.0679C16.9738 15.7529 17.1508 15.3256 17.1508 14.88C17.1508 13.95 16.4008 13.19 15.4708 13.19C15.0226 13.19 14.5927 13.3681 14.2758 13.685C13.9589 14.0019 13.7808 14.4318 13.7808 14.88C13.7808 15.81 14.5408 16.56 15.4708 16.56ZM16.8608 26.5V18.13H14.0908V26.5H16.8608Z" fill="white"/>
</svg>
