<svg width="17" height="22" viewBox="0 0 17 22" fill="none" xmlns="http://www.w3.org/2000/svg">
<path d="M8.59083 0.5C6.40358 0.50258 4.30666 1.3726 2.76005 2.91922C1.21343 4.46584 0.343409 6.56276 0.340829 8.75C0.338209 10.5374 0.922064 12.2763 2.00283 13.7C2.00283 13.7 2.22783 13.9963 2.26458 14.039L8.59083 21.5L14.9201 14.0353C14.9531 13.9955 15.1788 13.7 15.1788 13.7L15.1796 13.6978C16.2598 12.2747 16.8434 10.5366 16.8408 8.75C16.8382 6.56276 15.9682 4.46584 14.4216 2.91922C12.875 1.3726 10.7781 0.50258 8.59083 0.5ZM8.59083 11.75C7.99749 11.75 7.41747 11.5741 6.92412 11.2444C6.43077 10.9148 6.04625 10.4462 5.81919 9.89805C5.59213 9.34987 5.53272 8.74667 5.64847 8.16473C5.76423 7.58279 6.04995 7.04824 6.46951 6.62868C6.88907 6.20912 7.42361 5.9234 8.00556 5.80764C8.5875 5.69189 9.1907 5.7513 9.73888 5.97836C10.2871 6.20542 10.7556 6.58994 11.0852 7.08329C11.4149 7.57664 11.5908 8.15666 11.5908 8.75C11.5898 9.54535 11.2734 10.3078 10.7111 10.8702C10.1487 11.4326 9.38617 11.749 8.59083 11.75Z" fill="white"/>
</svg>
