<svg width="18" height="22" viewBox="0 0 18 22" fill="none" xmlns="http://www.w3.org/2000/svg">
<path d="M9.12891 0.5C6.94167 0.50258 4.84475 1.3726 3.29813 2.91922C1.75152 4.46584 0.881495 6.56276 0.878915 8.75C0.876295 10.5374 1.46015 12.2763 2.54092 13.7C2.54092 13.7 2.76592 13.9963 2.80266 14.039L9.12891 21.5L15.4582 14.0353C15.4912 13.9955 15.7169 13.7 15.7169 13.7L15.7177 13.6978C16.7979 12.2747 17.3815 10.5366 17.3789 8.75C17.3763 6.56276 16.5063 4.46584 14.9597 2.91922C13.4131 1.3726 11.3162 0.50258 9.12891 0.5ZM9.12891 11.75C8.53557 11.75 7.95555 11.5741 7.4622 11.2444C6.96886 10.9148 6.58434 10.4462 6.35728 9.89805C6.13021 9.34987 6.0708 8.74667 6.18656 8.16473C6.30231 7.58279 6.58804 7.04824 7.00759 6.62868C7.42715 6.20912 7.9617 5.9234 8.54364 5.80764C9.12559 5.69189 9.72879 5.7513 10.277 5.97836C10.8251 6.20542 11.2937 6.58994 11.6233 7.08329C11.953 7.57664 12.1289 8.15666 12.1289 8.75C12.1279 9.54535 11.8115 10.3078 11.2491 10.8702C10.6867 11.4326 9.92426 11.749 9.12891 11.75Z" fill="white"/>
</svg>
