<svg width="17" height="12" viewBox="0 0 17 12" fill="none" xmlns="http://www.w3.org/2000/svg">
<path d="M16.6931 1.42545C16.0793 1.65977 15.4112 1.82841 14.7231 1.89409C15.4375 1.51853 15.9725 0.925213 16.2277 0.225451C15.5573 0.578331 14.8229 0.825776 14.0571 0.956811C13.737 0.654018 13.3498 0.4128 12.9198 0.248186C12.4897 0.0835725 12.026 -0.000908491 11.5574 7.36757e-06C9.6616 7.36757e-06 8.13693 1.35977 8.13693 3.02841C8.13693 3.26273 8.16903 3.49705 8.22119 3.72249C5.38249 3.59113 2.85073 2.39113 1.16758 0.553853C0.860888 1.01737 0.700172 1.54514 0.702151 2.08225C0.702151 3.13314 1.306 4.05977 2.22682 4.60474C1.68417 4.58583 1.15422 4.45385 0.680084 4.21953V4.25681C0.680084 5.72841 1.85569 6.94793 3.42249 7.22841C3.1283 7.29602 2.82567 7.33061 2.52173 7.33136C2.29904 7.33136 2.0884 7.31184 1.87575 7.28521C2.30907 8.48521 3.57094 9.35681 5.07354 9.38521C3.89794 10.2 2.42543 10.6793 0.826532 10.6793C0.539653 10.6793 0.274842 10.6704 0 10.642C1.51665 11.503 3.31616 12 5.2541 12C11.5454 12 14.9879 7.38817 14.9879 3.38521C14.9879 3.25385 14.9879 3.12249 14.9779 2.99113C15.6439 2.55977 16.2277 2.02545 16.6931 1.42545Z" fill="#FF6D96"/>
</svg>
