<svg width="41" height="40" viewBox="0 0 41 40" fill="none" xmlns="http://www.w3.org/2000/svg">
<rect x="0.59082" width="40" height="40" rx="20" fill="#9AD744"/>
<path d="M27.6408 12.9101C26.7239 11.9842 25.6318 11.25 24.4283 10.7504C23.2248 10.2508 21.9339 9.99574 20.6308 10.0001C15.1708 10.0001 10.7208 14.4501 10.7208 19.9101C10.7208 21.6601 11.1808 23.3601 12.0408 24.8601L10.6408 30.0001L15.8908 28.6201C17.3408 29.4101 18.9708 29.8301 20.6308 29.8301C26.0908 29.8301 30.5408 25.3801 30.5408 19.9201C30.5408 17.2701 29.5108 14.7801 27.6408 12.9101ZM20.6308 28.1501C19.1508 28.1501 17.7008 27.7501 16.4308 27.0001L16.1308 26.8201L13.0108 27.6401L13.8408 24.6001L13.6408 24.2901C12.8184 22.9771 12.3817 21.4593 12.3808 19.9101C12.3808 15.3701 16.0808 11.6701 20.6208 11.6701C22.8208 11.6701 24.8908 12.5301 26.4408 14.0901C27.2084 14.8539 27.8167 15.7626 28.2304 16.7634C28.6441 17.7642 28.855 18.8371 28.8508 19.9201C28.8708 24.4601 25.1708 28.1501 20.6308 28.1501ZM25.1508 21.9901C24.9008 21.8701 23.6808 21.2701 23.4608 21.1801C23.2308 21.1001 23.0708 21.0601 22.9008 21.3001C22.7308 21.5501 22.2608 22.1101 22.1208 22.2701C21.9808 22.4401 21.8308 22.4601 21.5808 22.3301C21.3308 22.2101 20.5308 21.9401 19.5908 21.1001C18.8508 20.4401 18.3608 19.6301 18.2108 19.3801C18.0708 19.1301 18.1908 19.0001 18.3208 18.8701C18.4308 18.7601 18.5708 18.5801 18.6908 18.4401C18.8108 18.3001 18.8608 18.1901 18.9408 18.0301C19.0208 17.8601 18.9808 17.7201 18.9208 17.6001C18.8608 17.4801 18.3608 16.2601 18.1608 15.7601C17.9608 15.2801 17.7508 15.3401 17.6008 15.3301H17.1208C16.9508 15.3301 16.6908 15.3901 16.4608 15.6401C16.2408 15.8901 15.6008 16.4901 15.6008 17.7101C15.6008 18.9301 16.4908 20.1101 16.6108 20.2701C16.7308 20.4401 18.3608 22.9401 20.8408 24.0101C21.4308 24.2701 21.8908 24.4201 22.2508 24.5301C22.8408 24.7201 23.3808 24.6901 23.8108 24.6301C24.2908 24.5601 25.2808 24.0301 25.4808 23.4501C25.6908 22.8701 25.6908 22.3801 25.6208 22.2701C25.5508 22.1601 25.4008 22.1101 25.1508 21.9901Z" fill="#FFF9F9"/>
</svg>
