<svg width="137" height="136" viewBox="0 0 137 136" fill="none" xmlns="http://www.w3.org/2000/svg">
<path opacity="0.5" d="M67.2477 3.81322C68.4729 3.30575 69.8494 3.30575 71.0746 3.81322L113.275 21.2934C114.501 21.8008 115.474 22.7742 115.981 23.9994L133.462 66.2002C133.969 67.4253 133.969 68.8019 133.462 70.027L115.981 112.228C115.474 113.453 114.501 114.426 113.275 114.934L71.0746 132.414C69.8494 132.921 68.4729 132.921 67.2477 132.414L25.0469 114.934C23.8218 114.426 22.8484 113.453 22.3409 112.228L4.86077 70.027C4.3533 68.8019 4.3533 67.4253 4.86077 66.2002L22.3409 23.9994C22.8484 22.7742 23.8218 21.8008 25.0469 21.2934L67.2477 3.81322Z" stroke="#9956F2"/>
<circle cx="69.1613" cy="4.2063" r="3.43189" fill="#8FDC24"/>
<circle cx="114.834" cy="23.1643" r="3.43189" fill="#8FDC24"/>
<circle cx="133.34" cy="68.1146" r="3.43189" fill="#8FDC24"/>
<circle cx="4.07059" cy="68.1146" r="3.43189" fill="#8FDC24"/>
<circle cx="21.3274" cy="112.473" r="3.43189" fill="#8FDC24"/>
<circle cx="114.832" cy="112.473" r="3.43189" fill="#8FDC24"/>
<circle cx="69.1614" cy="131.999" r="3.43189" fill="#8FDC24"/>
<circle cx="23.9729" cy="21.844" r="3.43189" fill="#8FDC24"/>
<circle cx="68.2453" cy="68.1134" r="64.5929" stroke="#D4B7A6" stroke-opacity="0.22"/>
</svg>
