<svg width="89" height="78" viewBox="0 0 89 78" fill="none" xmlns="http://www.w3.org/2000/svg">
<path d="M36.8829 59.356C37.2755 58.6492 37.6142 58.0356 37.8891 57.5398C40.044 58.4381 42.0615 59.5573 44.2213 60.112C46.6952 60.7501 47.9371 59.7193 49.3802 56.5385C50.0772 56.5827 50.8282 56.6317 51.5891 56.6808C50.5779 63.602 44.2507 64.7948 36.8829 59.356Z" fill="url(#paint0_linear_68_248)"/>
<path d="M26.4788 43.4079C26.1745 47.6293 25.5364 51.6151 25.6885 55.5715C25.8456 59.6898 28.6484 61.1919 32.5066 59.6849C34.0381 59.0861 35.4518 58.1878 37.0225 57.373C37.3563 57.9767 37.7294 58.6492 38.3331 59.7389C35.977 60.7304 33.8172 61.9134 31.5102 62.5417C27.8091 63.5529 24.9719 61.8545 23.7104 58.2172C22.2721 54.0744 22.9446 49.9364 23.7987 45.8033C23.9852 44.8903 24.1669 43.9773 24.373 42.9563C23.0526 42.5047 21.8745 42.1022 20.5197 41.6408C20.7799 40.88 21.0155 40.1781 21.2462 39.4908C25.2811 40.1731 24.9817 40.021 26.8617 36.3444C28.6239 32.9084 28.7221 29.8798 26.7832 26.6106C26.1107 25.4767 25.7671 24.1514 25.016 22.2763C21.5309 23.8323 18.0114 25.03 14.8896 26.8904C10.8301 29.3104 10.6731 32.0346 13.9177 35.7161C13.5642 36.3248 13.1814 36.9776 12.7936 37.6452C7.80642 33.8312 7.57572 28.9619 12.6021 25.5356C16.0774 23.1697 20.1221 21.6382 24.2307 19.5717C23.9509 18.0451 23.352 15.9835 23.244 13.8973C23.1017 11.1583 22.9888 8.33092 23.4993 5.66554C24.319 1.37049 27.598 -0.440789 31.8587 0.570387C36.0212 1.55702 39.1627 4.23222 42.2797 6.93687C42.8736 7.45227 43.4234 8.02167 44.1155 8.67943C45.3476 7.61917 46.5305 6.60799 47.7626 5.54282C48.2878 6.22021 48.764 6.83379 49.2695 7.48663C48.1651 8.50272 47.1245 9.45499 45.9857 10.5005C47.9197 13.0285 49.7064 15.4091 51.557 17.7407C51.8073 18.0549 52.3522 18.2316 52.7841 18.2954C55.5182 18.6979 58.2621 19.0513 61.2859 19.4588C62.6406 14.9674 63.6616 10.4613 62.3608 5.80298C61.6294 3.18668 60.2452 2.67619 56.1318 2.9707C55.8275 2.40621 55.5084 1.80245 55.1844 1.19378C59.9605 -1.03473 64.3194 0.943442 64.9526 6.11222C65.414 9.87713 64.7317 13.7844 64.5059 17.6229C64.4617 18.3887 64.1721 19.1348 63.961 20.0282C65.8558 20.6859 67.7309 21.1081 69.3851 21.9572C71.967 23.2777 74.6766 24.5735 76.8413 26.4437C80.4736 29.5852 80.4638 33.9834 76.586 36.8009C73.4543 39.0785 69.6649 40.4677 66.1503 42.2102C65.5318 42.5195 64.825 42.652 64.0101 42.9171C64.3341 44.6154 64.6384 46.2255 64.9722 47.9631C64.177 48.0662 63.4947 48.1546 62.621 48.2675C62.2087 46.7212 61.816 45.2241 61.3742 43.5601C58.4094 43.9675 55.5182 44.2768 52.6761 44.8216C52.146 44.9247 51.4882 45.9408 51.4146 46.5985C51.0121 50.172 49.8929 51.2814 46.2606 51.3206C44.5965 51.3353 42.9325 51.3648 41.2734 51.2912C38.5835 51.1734 37.0765 49.8333 37.0863 47.1581C37.0913 45.2732 36.409 44.6204 34.6369 44.5811C33.3803 44.5565 32.1237 44.2964 30.872 44.1148C29.7038 43.9675 28.5404 43.7564 26.4788 43.4079ZM44.0517 48.7534C44.0517 48.7583 44.0517 48.7632 44.0517 48.773C44.9205 48.773 45.7893 48.7534 46.6582 48.778C48.1357 48.8221 48.9358 48.13 48.8376 46.6525C48.6216 43.457 50.0893 41.1598 52.2982 38.9803C56.6079 34.7295 56.3281 27.7102 51.9006 23.4593C47.419 19.1593 40.5567 19.3066 36.1439 23.7931C31.9863 28.0243 31.9225 35.0584 36.2224 39.1472C38.4362 41.253 39.7615 43.5257 39.5308 46.6231C39.4179 48.1104 40.1886 48.8074 41.6759 48.7632C42.4711 48.7338 43.2614 48.7534 44.0517 48.7534ZM42.7116 10.1029C39.1283 7.73697 35.8936 5.17467 32.2906 3.34867C28.9822 1.67483 26.3806 3.37321 25.6689 7.01541C24.8393 11.2663 25.9241 15.2962 26.9844 19.4539C30.0867 19.0513 32.9778 18.7127 35.8592 18.2709C36.3255 18.1972 36.8213 17.7555 37.1403 17.353C38.8485 15.1883 40.5076 12.9843 42.7116 10.1029ZM63.2346 22.7279C62.0614 25.5307 60.9521 28.1372 59.8967 30.7682C59.7347 31.1658 59.666 31.7303 59.8182 32.1083C60.8981 34.808 62.0516 37.4832 63.2591 40.3597C67.4658 39.2945 71.54 38.0919 74.8336 35.1811C77.4499 32.8642 77.445 30.1497 74.814 27.8623C71.5056 24.9761 67.4511 23.7342 63.2346 22.7279ZM53.8444 20.9363C55.3808 23.5918 56.6717 25.8302 58.1689 28.417C59.0524 26.1492 59.7789 24.2741 60.633 22.08C58.3505 21.6971 56.3134 21.3535 53.8444 20.9363ZM58.1198 34.5626C56.5588 37.3163 55.3072 39.5301 53.8297 42.1317C56.3085 41.7145 58.3407 41.3708 60.6477 40.9831C59.7838 38.7791 59.0524 36.9236 58.1198 34.5626ZM30.2339 28.4857C31.7163 25.8449 32.9778 23.6016 34.4799 20.9363C31.9814 21.3584 29.9934 21.6971 27.7551 22.0751C28.6042 24.2643 29.3356 26.1541 30.2339 28.4857ZM34.5928 42.1071C33.0269 39.4221 31.731 37.2132 30.2045 34.597C29.316 36.9531 28.5944 38.8724 27.7796 41.0272C30.1505 41.4052 32.0796 41.7095 34.5928 42.1071ZM48.4105 17.8242C46.8741 15.9 45.6077 14.3194 44.1793 12.5327C42.6625 14.4422 41.4256 15.9982 39.9726 17.8242C42.9571 17.8242 45.4212 17.8242 48.4105 17.8242Z" fill="url(#paint1_linear_68_248)"/>
<path d="M52.0282 6.07295C53.4271 6.07295 54.5611 4.93896 54.5611 3.5401C54.5611 2.14125 53.4271 1.00726 52.0282 1.00726C50.6294 1.00726 49.4954 2.14125 49.4954 3.5401C49.4954 4.93896 50.6294 6.07295 52.0282 6.07295Z" fill="url(#paint2_linear_68_248)"/>
<path d="M17.177 40.9291C18.5758 40.9291 19.7098 39.7951 19.7098 38.3962C19.7098 36.9974 18.5758 35.8634 17.177 35.8634C15.7781 35.8634 14.6441 36.9974 14.6441 38.3962C14.6441 39.7951 15.7781 40.9291 17.177 40.9291Z" fill="url(#paint3_linear_68_248)"/>
<path d="M64.069 54.8696C65.4679 54.8696 66.6019 53.7356 66.6019 52.3367C66.6019 50.9379 65.4679 49.8039 64.069 49.8039C62.6702 49.8039 61.5362 50.9379 61.5362 52.3367C61.5362 53.7356 62.6702 54.8696 64.069 54.8696Z" fill="url(#paint4_linear_68_248)"/>
<path d="M44.236 60.5734C44.9354 60.5734 45.5024 60.0064 45.5024 59.3069C45.5024 58.6075 44.9354 58.0405 44.236 58.0405C43.5365 58.0405 42.9695 58.6075 42.9695 59.3069C42.9695 60.0064 43.5365 60.5734 44.236 60.5734Z" fill="url(#paint5_linear_68_248)"/>
<path d="M48.8525 55.6108H39.6194C39.0549 55.6108 38.5984 55.1542 38.5984 54.5898V53.9958C38.5984 53.4313 39.0549 52.9748 39.6194 52.9748H48.8525C49.417 52.9748 49.8735 53.4313 49.8735 53.9958V54.5898C49.8784 55.1493 49.417 55.6108 48.8525 55.6108Z" fill="url(#paint6_linear_68_248)"/>
<path d="M47.6229 59.3069H40.849C40.2845 59.3069 39.828 58.8504 39.828 58.286V57.692C39.828 57.1275 40.2845 56.671 40.849 56.671H47.6229C48.1874 56.671 48.6439 57.1275 48.6439 57.692V58.286C48.6439 58.8504 48.1874 59.3069 47.6229 59.3069Z" fill="url(#paint7_linear_68_248)"/>
<path d="M49.7232 37.2181C50.1453 36.4475 50.4546 35.613 50.6411 34.7147C51.613 29.9141 48.5108 25.2264 43.7052 24.2545C40.7993 23.6654 37.9278 24.5735 35.9054 26.4486C37.7216 23.1304 41.5503 21.2259 45.4527 22.0211C50.2533 22.993 53.3605 27.6807 52.3886 32.4813C52.0008 34.3662 51.0436 35.9959 49.7232 37.2181Z" fill="#FF497C"/>
<path d="M16.0994 72.2771C16.0994 72.6865 16.0125 73.0526 15.8388 73.3876C15.6651 73.7226 15.4356 73.9893 15.1502 74.1878C14.8648 74.3863 14.5422 74.4856 14.1886 74.4856H13.3263L16.0932 77.6929H13.3263L10.5657 74.4856V77.6929H8.71082V72.3329H10.5657L13.8536 72.3453C13.9653 72.3453 14.0584 72.3019 14.1328 72.2089C14.2073 72.122 14.2507 72.0103 14.2507 71.8863V71.7374C14.2507 71.6071 14.2135 71.4955 14.1328 71.4086C14.0584 71.3218 13.9591 71.2721 13.8536 71.2721H0.15601C0.15601 70.8813 0.236653 70.5215 0.404151 70.1989C0.57165 69.8763 0.794982 69.6157 1.07415 69.4234C1.35331 69.2311 1.66349 69.1319 1.99849 69.1319H14.1886C14.5422 69.1319 14.8586 69.2311 15.1502 69.4296C15.4356 69.6282 15.6651 69.8949 15.8388 70.2299C16.0125 70.5649 16.0994 70.9371 16.0994 71.3404V72.2771ZM2.00469 74.4236C2.00469 74.7338 2.09774 75.0005 2.29005 75.2238C2.48237 75.4472 2.71191 75.5588 2.98487 75.5588H7.54454V77.6929H1.86821C1.55183 77.6929 1.26646 77.606 1.00591 77.4261C0.745352 77.2462 0.540632 77.0105 0.385541 76.7065C0.23045 76.4025 0.15601 76.0737 0.15601 75.7077V72.3453H1.99849V74.4236H2.00469Z" fill="url(#paint8_linear_68_248)"/>
<path d="M17.3153 71.2907V69.1567H24.6976V71.2907H17.3153ZM17.3153 77.6991V72.3578H24.6976V74.498H19.164V75.565H24.6976V77.6991H17.3153Z" fill="url(#paint9_linear_68_248)"/>
<path d="M28.761 69.1567H30.6035L33.3703 77.6991H31.5278L29.6854 72.3578L27.8429 77.6991H25.9942L28.761 69.1567Z" fill="url(#paint10_linear_68_248)"/>
<path d="M33.3207 71.2969V69.1629H40.703V71.2969H37.9362V74.5042V75.5712V77.7053H36.0937V75.5712V74.5042V71.2969H33.3207Z" fill="url(#paint11_linear_68_248)"/>
<path d="M41.9437 77.6991V69.1567H43.7862V77.6991H41.9437Z" fill="url(#paint12_linear_68_248)"/>
<path d="M44.8843 69.1567H46.7392L48.5816 74.498L50.4241 69.1567H52.2666L49.4998 77.6991H47.6573L44.8843 69.1567Z" fill="url(#paint13_linear_68_248)"/>
<path d="M53.4763 71.2907V69.1567H60.8587V71.2907H53.4763ZM53.4763 77.6991V72.3578H60.8587V74.498H55.325V75.565H60.8587V77.6991H53.4763Z" fill="url(#paint14_linear_68_248)"/>
<path d="M70.04 72.3578V69.1567H71.8825V77.6991H70.04V74.498H67.2732V77.7053H65.4307V69.1567H67.2732V72.3578H70.04Z" fill="#FF497C"/>
<path d="M77.8256 74.4236V69.1567H79.6743V74.529C79.6743 75.1184 79.5502 75.6519 79.3021 76.1296C79.0539 76.6073 78.7189 76.9981 78.3033 77.2834C77.8876 77.5688 77.4224 77.7115 76.9199 77.7115H75.9521C75.4434 77.7115 74.9843 77.5688 74.5687 77.2834C74.153 76.9981 73.818 76.6135 73.5699 76.1296C73.3218 75.6457 73.1977 75.1122 73.1977 74.529V69.1567H75.0464V74.4236C75.0464 74.74 75.1456 75.0129 75.3379 75.2362C75.5303 75.4596 75.766 75.5712 76.0451 75.5712H76.8268C77.0998 75.5712 77.3355 75.4596 77.534 75.2362C77.7263 75.0129 77.8256 74.74 77.8256 74.4236Z" fill="#FF497C"/>
<path d="M87.404 69.1567C87.6584 69.1567 87.8755 69.2621 88.0492 69.4669C88.2291 69.6716 88.3159 69.9197 88.3159 70.2175V72.3764C88.3159 72.6617 88.2353 72.9037 88.0678 73.1022C87.9003 73.3007 87.7018 73.4124 87.4536 73.431C87.435 73.431 87.4226 73.431 87.404 73.431H87.4412C87.6832 73.431 87.8879 73.5302 88.0616 73.7288C88.2353 73.9273 88.3159 74.1692 88.3159 74.4484V76.6879C88.3159 76.9671 88.2291 77.209 88.0616 77.4075C87.8941 77.606 87.6832 77.7053 87.4412 77.7053H80.9398V72.3453H82.7947V72.3578H86.1447C86.2377 72.3578 86.3184 72.3205 86.3804 72.2461C86.4486 72.1716 86.4797 72.0786 86.4797 71.9731V71.6816C86.4797 71.5761 86.4486 71.483 86.3804 71.4086C86.3122 71.3342 86.2377 71.2969 86.1447 71.2969H83.353V71.2907H80.946V69.1567H82.317H87.404ZM86.4735 75.1184V74.9447C86.4735 74.8206 86.4362 74.7151 86.3618 74.6283C86.2874 74.5414 86.1943 74.498 86.0888 74.498H82.7885V75.565H86.0888C86.1943 75.565 86.2874 75.5216 86.3618 75.4348C86.4362 75.3479 86.4735 75.2424 86.4735 75.1184Z" fill="#FF497C"/>
<defs>
<linearGradient id="paint0_linear_68_248" x1="36.8829" y1="59.6525" x2="51.5891" y2="59.6525" gradientUnits="userSpaceOnUse">
<stop stop-color="#FFFEFF"/>
<stop offset="1" stop-color="#D7FFFE"/>
</linearGradient>
<linearGradient id="paint1_linear_68_248" x1="8.9411" y1="31.5592" x2="79.5308" y2="31.5592" gradientUnits="userSpaceOnUse">
<stop stop-color="#FFFEFF"/>
<stop offset="1" stop-color="#D7FFFE"/>
</linearGradient>
<linearGradient id="paint2_linear_68_248" x1="49.4954" y1="3.5401" x2="54.5611" y2="3.5401" gradientUnits="userSpaceOnUse">
<stop stop-color="#FF0844"/>
<stop offset="1" stop-color="#FFB199"/>
</linearGradient>
<linearGradient id="paint3_linear_68_248" x1="14.6441" y1="38.3962" x2="19.7098" y2="38.3962" gradientUnits="userSpaceOnUse">
<stop stop-color="#FF0844"/>
<stop offset="1" stop-color="#FFB199"/>
</linearGradient>
<linearGradient id="paint4_linear_68_248" x1="61.5362" y1="52.3367" x2="66.6019" y2="52.3367" gradientUnits="userSpaceOnUse">
<stop stop-color="#FF0844"/>
<stop offset="1" stop-color="#FFB199"/>
</linearGradient>
<linearGradient id="paint5_linear_68_248" x1="42.9695" y1="59.3069" x2="45.5024" y2="59.3069" gradientUnits="userSpaceOnUse">
<stop stop-color="#FFFEFF"/>
<stop offset="1" stop-color="#D7FFFE"/>
</linearGradient>
<linearGradient id="paint6_linear_68_248" x1="38.5984" y1="54.2928" x2="49.8735" y2="54.2928" gradientUnits="userSpaceOnUse">
<stop stop-color="#FFFEFF"/>
<stop offset="1" stop-color="#D7FFFE"/>
</linearGradient>
<linearGradient id="paint7_linear_68_248" x1="39.828" y1="57.989" x2="48.6439" y2="57.989" gradientUnits="userSpaceOnUse">
<stop stop-color="#FFFEFF"/>
<stop offset="1" stop-color="#D7FFFE"/>
</linearGradient>
<linearGradient id="paint8_linear_68_248" x1="0.15601" y1="73.4124" x2="16.0994" y2="73.4124" gradientUnits="userSpaceOnUse">
<stop stop-color="#FFFEFF"/>
<stop offset="1" stop-color="#D7FFFE"/>
</linearGradient>
<linearGradient id="paint9_linear_68_248" x1="17.3153" y1="73.4279" x2="24.6976" y2="73.4279" gradientUnits="userSpaceOnUse">
<stop stop-color="#FFFEFF"/>
<stop offset="1" stop-color="#D7FFFE"/>
</linearGradient>
<linearGradient id="paint10_linear_68_248" x1="25.9942" y1="73.4279" x2="33.3703" y2="73.4279" gradientUnits="userSpaceOnUse">
<stop stop-color="#FFFEFF"/>
<stop offset="1" stop-color="#D7FFFE"/>
</linearGradient>
<linearGradient id="paint11_linear_68_248" x1="33.3207" y1="73.4341" x2="40.703" y2="73.4341" gradientUnits="userSpaceOnUse">
<stop stop-color="#FFFEFF"/>
<stop offset="1" stop-color="#D7FFFE"/>
</linearGradient>
<linearGradient id="paint12_linear_68_248" x1="41.9437" y1="73.4279" x2="43.7862" y2="73.4279" gradientUnits="userSpaceOnUse">
<stop stop-color="#FFFEFF"/>
<stop offset="1" stop-color="#D7FFFE"/>
</linearGradient>
<linearGradient id="paint13_linear_68_248" x1="44.8843" y1="73.4279" x2="52.2666" y2="73.4279" gradientUnits="userSpaceOnUse">
<stop stop-color="#FFFEFF"/>
<stop offset="1" stop-color="#D7FFFE"/>
</linearGradient>
<linearGradient id="paint14_linear_68_248" x1="53.4763" y1="73.4279" x2="60.8587" y2="73.4279" gradientUnits="userSpaceOnUse">
<stop stop-color="#FFFEFF"/>
<stop offset="1" stop-color="#D7FFFE"/>
</linearGradient>
</defs>
</svg>
